<svg width="553" height="554" xmlns="http://www.w3.org/2000/svg" xmlns:xlink="http://www.w3.org/1999/xlink" xml:space="preserve" overflow="hidden"><defs><clipPath id="clip0"><rect x="380" y="188" width="553" height="554"/></clipPath></defs><g clip-path="url(#clip0)" transform="translate(-380 -188)"><path d="M380 465C380 312.017 503.793 188 656.5 188 809.207 188 933 312.017 933 465 933 617.983 809.207 742 656.5 742 503.793 742 380 617.983 380 465Z" fill="#FFFFFF" fill-rule="evenodd"/><path d="M459 386.667C459 364.759 476.759 347 498.667 347L814.333 347C836.24 347 854 364.759 854 386.667L854 545.33C854 567.237 836.24 584.997 814.333 584.997L498.667 584.997C476.759 584.997 459 567.237 459 545.33Z" fill="#C00000" fill-rule="evenodd"/><path d="M626 585 760.448 347 818 347 683.552 585Z" fill="#FFFFFF" fill-rule="evenodd"/><path d="M0 238 134.448 0 192 0 57.5521 238Z" fill="#FFFFFF" fill-rule="evenodd" transform="matrix(-1 0 0 1 818 347)"/><rect x="459" y="424" width="167" height="84.0002" fill="#C00000"/><rect x="459" y="424" width="167" height="6.00018" fill="#FFFFFF"/><rect x="459" y="501" width="167" height="7.00024" fill="#FFFFFF"/><rect x="619" y="345" width="6.99988" height="82.9998" fill="#FFFFFF"/><rect x="619" y="501" width="6.99988" height="84.0002" fill="#FFFFFF"/></g></svg>